# xmcd
#
# Track frame offsets:
#        150
#        1893
#        15498
#        23784
#        34879
#        49024
#        62456
#        73882
#        88873
#        101814
#        115735
#        133282
#        140782
#        152450
#        176523
#        194973
#        196681
#        214574
#        232940
#        250822
#        261121
#        262118
#        282116
#        300075
#        321204
#        330637
#        350087
#
# Disc length: 4702 seconds
#
# Revision: 0
# Processed by: cddbd v1.5.1PL0 Copyright (c) Steve Scherf et al.
# Submitted via: ExactAudioCopy v0.95a5
#
DISCID=86125c1b
DTITLE=Various Artist - TEMPLE OF TERROR 2005
DYEAR=2005
DGENRE=Hardcore
TTITLE0=INTRO
TTITLE1=Negative A - Smoking Blunt
TTITLE2=E-Noid - The Ghost And The Darkness
TTITLE3=Tieum and THe Rapist - Excalibur
TTITLE4=Hellraisor and Sador - Till Death Does It Part
TTITLE5=Bonehead - From The Netherlands
TTITLE6=Stinger - Eat You
TTITLE7=Project Overdrive - P.O.
TTITLE8=Frazzbass - Death Oscillations(Live In Zurich)
TTITLE9=Daniek - New Jam
TTITLE10=Triple H - Number 9
TTITLE11=Lunatic and Miss Hysteria - Fuck Maniac
TTITLE12=Partyraiser and Triax - Assassins(Part 1)
TTITLE13=Leviathan and Omar Santana - Fuck Off
TTITLE14=Justice - Resurrection
TTITLE15=Bullshit
TTITLE16=Noisekick - Stoeptegel Terror
TTITLE17=The Sickest Squad - She's A Fucking Cocksucker
TTITLE18=E-Noid - Agressive Behaviour
TTITLE19=Partyraiser and Triax - Assassins(Part 2)
TTITLE20=Bullshit
TTITLE21=Akira and Metal D - Trancetrutje
TTITLE22=Negative A - Decapitale
TTITLE23=Rowdy - Cheating Slut
TTITLE24=Angernoizer - Een Opgefokt Sfeertje
TTITLE25=Noizefucker - The Killing Music
TTITLE26=Outro
EXTD=
EXTT0=
EXTT1=
EXTT2=
EXTT3=
EXTT4=
EXTT5=
EXTT6=
EXTT7=
EXTT8=
EXTT9=
EXTT10=
EXTT11=
EXTT12=
EXTT13=
EXTT14=
EXTT15=
EXTT16=
EXTT17=
EXTT18=
EXTT19=
EXTT20=
EXTT21=
EXTT22=
EXTT23=
EXTT24=
EXTT25=
EXTT26=
PLAYORDER=
